<svg width="39" height="59" viewBox="0 0 39 59" fill="none" xmlns="http://www.w3.org/2000/svg">
<g clip-path="url(#clip0_13_19)">
<path fill-rule="evenodd" clip-rule="evenodd" d="M27.3261 57.4344C24.9539 53.7871 23.577 49.3637 23.162 44.7936C22.8246 41.5344 22.8916 38.2093 23.2051 34.8865C23.8225 35.2365 24.5046 35.466 25.1781 35.6007C26.498 35.8609 27.806 35.7285 29.0301 35.4189C30.2553 35.0995 31.3853 34.5501 32.3905 33.8052C33.385 33.0489 34.2932 32.1364 34.8829 30.838C33.4825 30.7022 32.3083 30.7869 31.184 30.9324C30.0637 31.0733 29.0261 31.3216 28.0192 31.5727C27.0134 31.825 26.0484 32.1477 25.0625 32.475C24.5267 32.65 23.9926 32.8336 23.4047 33.0307C23.492 32.3108 23.5861 31.5909 23.6921 30.8738C23.8316 29.9664 23.9903 29.0618 24.1593 28.1578C24.8782 28.6652 25.7258 28.976 26.5604 29.1425C27.8803 29.4033 29.1877 29.2704 30.4118 28.9607C31.6376 28.6414 32.7675 28.0919 33.7722 27.347C34.7667 26.5913 35.6749 25.6782 36.2646 24.3804C34.8642 24.2446 33.6906 24.3293 32.5657 24.4742C31.4459 24.6157 30.4084 24.864 29.4009 25.1151C28.3957 25.3668 27.4307 25.6896 26.4447 26.0174C25.8075 26.2242 25.1753 26.4453 24.4473 26.685C24.7126 25.3878 25.0058 24.0946 25.3267 22.8065C26.2593 23.4895 27.336 23.894 28.4478 24.0389C29.8074 24.2509 31.2175 24.0719 32.5124 23.6128C33.813 23.1616 34.9969 22.4008 35.9363 21.4127C36.8588 20.42 37.6145 19.2138 37.7807 17.7438C36.3752 18.1035 35.2769 18.474 34.2025 18.8257L31.188 19.8638L28.208 20.9212C27.6881 21.1388 27.1466 21.2917 26.5734 21.5309C26.2423 21.6701 25.9016 21.7906 25.5455 21.9354C25.9356 20.4229 26.362 18.9177 26.8189 17.4205C27.7102 18.2478 28.9405 18.6706 30.1714 18.7274C31.5934 18.762 32.9716 18.3433 34.1453 17.6915C35.3263 17.0353 36.2952 16.1244 37.0476 15.0664C37.7829 13.9999 38.3527 12.7959 38.4372 11.3532C37.0748 11.7584 35.9981 12.2385 34.9866 12.7328C33.9769 13.2164 33.0799 13.7499 32.2028 14.2232L29.6271 15.6477C28.8702 16.0227 28.0759 16.375 27.0202 16.7756C27.4715 15.3312 27.9557 13.8954 28.4586 12.4652C29.0414 12.938 29.7382 13.1323 30.4135 13.1942C31.2021 13.2522 31.9987 13.1113 32.7097 12.788C33.4162 12.459 34.0648 11.9925 34.5348 11.364C35.015 10.7504 35.3461 10.0043 35.3847 9.11567C34.9129 9.13612 34.562 9.24124 34.1957 9.30715C33.8317 9.37192 33.5295 9.48727 33.2143 9.56455C32.6156 9.76739 32.0656 9.94467 31.5537 10.1941C31.0338 10.4299 30.5309 10.6879 29.9951 11.0078C29.5812 11.2561 29.1622 11.53 28.6678 11.8766C29.0539 10.7975 29.457 9.72421 29.876 8.65656C30.4027 8.78554 30.9703 8.71452 31.4726 8.56849C32.1439 8.36678 32.746 8.00426 33.25 7.55879C33.7677 7.12014 34.1714 6.58148 34.4996 6.00817C34.647 5.71043 34.7854 5.40815 34.8886 5.09052C34.9742 4.75983 35.0604 4.43595 35.0768 4.07742C34.7429 4.2297 34.4786 4.4172 34.2133 4.59846C33.9463 4.77688 33.6985 4.9604 33.4683 5.15416C32.9887 5.51952 32.5634 5.90817 32.1342 6.27352C31.7124 6.64853 31.3008 7.0173 30.8671 7.3781C30.6346 7.57072 30.4033 7.76505 30.1499 7.95881C30.261 7.68096 31.4499 4.81154 31.9301 3.75297C31.4323 4.67289 30.9561 5.60475 30.4872 6.54114C30.439 6.11783 30.4226 5.72918 30.4044 5.34224C30.3789 4.77801 30.3744 4.22458 30.3676 3.65922C30.3483 3.09557 30.3494 2.51884 30.2961 1.91711C30.2842 1.61653 30.253 1.30914 30.2049 0.990944C30.1595 0.671615 30.1209 0.350012 30.0087 0C29.7547 0.253986 29.5744 0.535815 29.3873 0.821052C29.2223 1.11197 29.0925 1.41766 28.9723 1.72733C28.7699 2.35633 28.6434 3.01829 28.6672 3.69672C28.678 4.37004 28.8152 5.06041 29.118 5.69339C29.3691 6.20534 29.7371 6.71217 30.2491 7.00991C30.0331 7.44629 28.6718 10.3589 28.2641 11.2817C28.2046 10.4606 28.1366 9.83274 28.043 9.23783C27.9444 8.62133 27.8191 8.0679 27.6671 7.51731C27.5305 6.96388 27.3128 6.42637 27.0843 5.836C26.942 5.54508 26.8365 5.23826 26.6528 4.91608C26.4691 4.59221 26.3245 4.25527 26.0376 3.87912C25.3822 4.47914 25.0228 5.21155 24.8601 5.97408C24.6803 6.73831 24.7387 7.53663 24.9394 8.29064C25.1475 9.04521 25.5501 9.74751 26.1 10.3174C26.6437 10.8612 27.3371 11.3169 28.2142 11.3959C27.5753 12.8431 26.9635 14.3039 26.3784 15.7761C26.1278 14.9335 25.9532 14.2818 25.7644 13.6516C25.5484 12.8453 25.3097 12.1118 25.0001 11.3629C24.69 10.6146 24.3475 9.84524 23.8696 9.05941C23.3916 8.26677 22.8332 7.4622 21.9617 6.57126C21.1924 7.573 20.9185 8.64747 20.8272 9.70773C20.7513 10.7708 20.9134 11.8351 21.3171 12.8425C21.7253 13.8442 22.3614 14.8034 23.2663 15.5256C24.0487 16.1307 25.029 16.5659 26.07 16.5415C26.0416 16.6148 26.0104 16.6864 25.9821 16.7597C25.4435 18.1529 24.9349 19.5592 24.4535 20.9752C24.271 20.6763 24.093 20.4013 23.9484 20.0984C23.8072 19.845 23.6672 19.6087 23.526 19.3865C23.4052 19.1376 23.2822 18.9058 23.1541 18.6876C22.6818 17.7779 22.2072 16.9773 21.7678 16.0983C21.3125 15.2346 20.8437 14.3522 20.2937 13.413C19.7426 12.4675 19.1445 11.4919 18.2901 10.3737C17.4997 11.5658 17.2701 12.8874 17.2797 14.1818C17.3013 15.4818 17.6465 16.7762 18.2611 17.9603C18.8599 19.149 19.8231 20.1956 20.969 20.9206C21.2632 21.0962 21.5631 21.257 21.8648 21.4019C22.1857 21.5252 22.5168 21.6224 22.8417 21.7082C23.0083 21.7445 23.1665 21.7888 23.3344 21.8138C23.5095 21.8258 23.6785 21.8434 23.8548 21.84C23.9574 21.8417 24.0589 21.8377 24.1604 21.8366C23.6677 23.3275 23.2125 24.8333 22.7918 26.3509C22.2055 25.5992 21.6476 24.9958 21.1385 24.3696L19.0872 22.0497C18.4051 21.303 17.7174 20.549 16.956 19.7547C16.1849 18.9569 15.3809 18.1416 14.306 17.2029C13.7866 18.5575 13.8762 19.9473 14.2153 21.228C14.5594 22.5184 15.2381 23.7082 16.1361 24.7083C17.0308 25.7083 18.1534 26.5288 19.4263 26.9833C20.3907 27.3629 21.4441 27.5197 22.5049 27.4067C22.2339 28.434 21.977 29.4658 21.7423 30.5051C21.5841 31.2227 21.4384 31.9449 21.2984 32.6688C20.7535 31.9818 20.2336 31.4142 19.7568 30.8272L17.7055 28.5084C17.0229 27.7606 16.3357 27.0066 15.5743 26.2134C14.8026 25.4151 13.9992 24.5997 12.9248 23.6611C12.4049 25.0157 12.494 26.4055 12.8336 27.6862C13.1771 28.976 13.8558 30.167 14.7539 31.1665C15.6491 32.1665 16.7711 32.9875 18.044 33.4415C18.9942 33.8154 20.0301 33.9751 21.0756 33.8711C20.4349 37.5093 20.0681 41.2225 20.1917 44.9891C20.2092 46.2221 20.3419 47.4568 20.4644 48.6949L20.7564 50.5467C20.8471 51.166 21.0223 51.774 21.1538 52.3894C21.4836 53.7379 21.908 55.9282 22.4324 57.2355C22.4579 57.299 24.0891 57.3653 27.3261 57.4344Z" fill="#C08D5D"/>
</g>
<g clip-path="url(#clip1_13_19)">
<path fill-rule="evenodd" clip-rule="evenodd" d="M22.9499 55.1286C22.6676 52.9716 21.7548 50.8426 20.4287 48.9702C19.4987 47.6215 18.3936 46.3789 17.1954 45.2173C17.0743 45.5509 16.8895 45.8597 16.6771 46.1296C16.2598 46.6571 15.7195 47.0315 15.1535 47.3112C14.584 47.5876 13.9759 47.7456 13.3518 47.7888C12.7281 47.8241 12.0865 47.7721 11.4407 47.4699C11.9291 46.9635 12.403 46.6145 12.8777 46.3047C13.3495 45.9945 13.8246 45.752 14.289 45.5206C14.7533 45.2899 15.225 45.0993 15.7062 44.9036C15.9667 44.7961 16.2294 44.6925 16.517 44.5766C16.25 44.3312 15.9805 44.088 15.7073 43.8498C15.3596 43.5501 15.0055 43.2577 14.6478 42.9688C14.5392 43.3952 14.3178 43.7886 14.0546 44.1229C13.6374 44.6506 13.0971 45.0246 12.5311 45.3043C11.9614 45.5809 11.3533 45.7389 10.7295 45.7819C10.106 45.8174 9.46415 45.7652 8.81856 45.4632C9.30692 44.9569 9.78065 44.608 10.2554 44.2978C10.7271 43.988 11.2022 43.7455 11.6668 43.5139C12.1308 43.2832 12.6025 43.0926 13.0838 42.8971C13.3933 42.7688 13.7054 42.6476 14.06 42.5024C13.5379 42.0953 13.0066 41.6988 12.4663 41.3132C12.3335 41.8757 12.0555 42.3791 11.6798 42.7952C11.2316 43.3173 10.6374 43.7071 9.99595 43.953C9.35494 44.2038 8.65779 44.2989 7.97974 44.2282C7.30669 44.1503 6.62764 43.9371 6.08718 43.4321C6.73837 43.1125 7.27623 42.8968 7.79894 42.6816L9.28221 42.0975L10.7586 41.5319C11.027 41.4459 11.2825 41.3282 11.5781 41.233C11.7492 41.1784 11.9178 41.1136 12.1003 41.0531C11.4608 40.6046 10.81 40.1708 10.1501 39.7499C10.0798 40.3538 9.7493 40.9141 9.29974 41.3353C8.77034 41.8102 8.11031 42.0985 7.45246 42.2318C6.79033 42.3658 6.12616 42.3341 5.49656 42.1761C4.87067 42.0094 4.26307 41.7366 3.76251 41.2155C4.41207 40.9271 4.97734 40.7601 5.52244 40.6196C6.06338 40.4756 6.57765 40.3872 7.06483 40.2824L8.50671 39.9877C8.91627 39.8845 9.33267 39.7605 9.86414 39.57C9.22355 39.1674 8.57322 38.7787 7.91763 38.3982C7.84953 38.7672 7.64769 39.0673 7.41105 39.3101C7.13001 39.5882 6.78137 39.7933 6.40607 39.9012C6.03064 40.0055 5.63255 40.0388 5.24979 39.9525C4.86794 39.8751 4.4998 39.6989 4.19659 39.3735C4.38259 39.2281 4.55016 39.1542 4.71082 39.0603C4.87025 38.9667 5.0226 38.9125 5.16755 38.8395C5.46106 38.7222 5.72773 38.611 6.00339 38.5396C6.27763 38.4605 6.55261 38.3953 6.86019 38.3429C7.09819 38.303 7.34642 38.271 7.64694 38.2423C7.14978 37.9574 6.64799 37.6802 6.14201 37.4103C5.98363 37.6304 5.74478 37.7876 5.50636 37.8952C5.18563 38.0365 4.83898 38.0942 4.50269 38.0885C4.16345 38.0898 3.83505 38.016 3.52408 37.9046C3.37135 37.8393 3.2206 37.7693 3.07823 37.682C2.9383 37.5841 2.80037 37.4889 2.6777 37.3579C2.85412 37.3074 3.01546 37.2929 3.1752 37.2757C3.33467 37.2568 3.48847 37.2461 3.63891 37.245C3.93991 37.2282 4.22779 37.2379 4.50961 37.2375C4.79176 37.2431 5.068 37.2496 5.35007 37.246C5.501 37.2438 5.65205 37.2425 5.81133 37.2339C5.67886 37.1644 4.29509 36.4594 3.76878 36.2128C4.25675 36.401 4.74041 36.6006 5.22274 36.8044C5.10361 36.6278 4.98367 36.4747 4.86492 36.3217C4.69142 36.0989 4.51344 35.887 4.33245 35.6698C4.15676 35.4492 3.96906 35.2303 3.79395 34.9842C3.70087 34.8661 3.61292 34.7391 3.52792 34.6025C3.44148 34.4663 3.35171 34.3315 3.28074 34.162C3.45979 34.1761 3.61985 34.2247 3.78361 34.2724C3.9408 34.3294 4.08943 34.4035 4.23568 34.4822C4.51688 34.6557 4.77989 34.8663 4.99113 35.132C5.20566 35.3915 5.37766 35.6985 5.46808 36.0375C5.53881 36.3137 5.56348 36.6259 5.46549 36.9053C5.68932 37.0011 7.15264 37.6665 7.60726 37.885C7.3633 37.5535 7.1853 37.2927 7.0277 37.0361C6.86503 36.7697 6.73297 36.5186 6.61196 36.2599C6.48421 36.0051 6.39246 35.73 6.28764 35.4314C6.24729 35.2745 6.18775 35.1236 6.15299 34.9415C6.11767 34.7587 6.06323 34.5837 6.05018 34.3475C6.49421 34.3628 6.8687 34.5246 7.17816 34.7617C7.49465 34.9939 7.73166 35.3164 7.90018 35.6682C8.06608 36.0227 8.14106 36.4204 8.11701 36.8157C8.08684 37.199 7.97116 37.5974 7.66332 37.9122C8.37618 38.255 9.08313 38.6118 9.78363 38.9816C9.6053 38.5798 9.46008 38.2753 9.32726 37.9744C9.14759 37.5977 9.00016 37.2413 8.87469 36.8561C8.74963 36.4708 8.63002 36.0671 8.55659 35.6131C8.48094 35.1566 8.43203 34.6693 8.47407 34.0476C9.09187 34.1787 9.54488 34.4983 9.92386 34.8718C10.2979 35.2513 10.5819 35.7086 10.7555 36.2227C10.9255 36.7362 10.9951 37.3074 10.8855 37.8758C10.7845 38.36 10.5531 38.8438 10.1494 39.1725C10.184 39.1911 10.2191 39.2082 10.2537 39.2269C10.9109 39.5817 11.5609 39.9513 12.2037 40.3334C12.176 40.1605 12.1544 39.9981 12.111 39.836C12.0824 39.6938 12.0589 39.5585 12.0405 39.4281C12.0056 39.2943 11.9771 39.1662 11.955 39.0416C11.8391 38.5424 11.7596 38.0839 11.6413 37.607C11.5339 37.1308 11.4257 36.6431 11.3298 36.1074C11.2324 35.5689 11.143 35.0038 11.1048 34.3012C11.7924 34.4978 12.3088 34.9257 12.7254 35.421C13.1394 35.9223 13.4284 36.5266 13.5792 37.1764C13.7375 37.8227 13.7111 38.5334 13.5108 39.1812C13.456 39.3435 13.3941 39.502 13.3265 39.655C13.2445 39.8061 13.1502 39.9506 13.0545 40.0887C13.003 40.1566 12.9572 40.2248 12.9015 40.2888C12.8388 40.3503 12.7803 40.4118 12.7121 40.4678C12.6736 40.5018 12.6338 40.5332 12.5948 40.5657C13.2663 40.9726 13.9283 41.3973 14.581 41.8378C14.5598 41.3616 14.576 40.951 14.5663 40.5476L14.5929 38.9994C14.6098 38.4941 14.6265 37.9841 14.6581 37.4348C14.6922 36.8811 14.7331 36.3101 14.8371 35.6041C15.4744 35.9505 15.8916 36.508 16.1786 37.1051C16.4667 37.7075 16.595 38.3802 16.5782 39.0521C16.5628 39.7228 16.4024 40.3993 16.066 40.9854C15.8226 41.4429 15.473 41.8446 15.0329 42.146C15.4695 42.4486 15.9022 42.7575 16.3289 43.0765C16.6221 43.298 16.912 43.5252 17.2003 43.755C17.1844 43.3169 17.1977 42.9323 17.1885 42.5543L17.2155 41.0065C17.2322 40.5006 17.2487 39.9908 17.2806 39.4419C17.3148 38.8878 17.3555 38.3169 17.4592 37.6112C18.0967 37.9574 18.5142 38.5147 18.8009 39.112C19.0891 39.714 19.2177 40.3871 19.2008 41.0588C19.1851 41.7297 19.0251 42.4062 18.6886 42.9921C18.4487 43.4428 18.1067 43.8399 17.6754 44.1398C19.1003 45.3151 20.4455 46.6078 21.6215 48.0801C22.0152 48.5546 22.3657 49.0671 22.7211 49.5777L23.2114 50.3765C23.378 50.6415 23.5088 50.9295 23.6586 51.2062C23.9711 51.826 24.5209 52.7966 24.746 53.464C24.7569 53.4964 24.1583 54.0513 22.9499 55.1286Z" fill="#C08D5D"/>
</g>
<defs>
<clipPath id="clip0_13_19">
<rect width="26.0805" height="57.9566" fill="white" transform="translate(12.5569)"/>
</clipPath>
<clipPath id="clip1_13_19">
<rect width="13.0402" height="28.9783" fill="white" transform="matrix(-0.760439 0.649409 0.649409 0.760439 9.91626 28.4953)"/>
</clipPath>
</defs>
</svg>
